<?xml version="1.0" encoding="UTF-8"?>
<!-- Generator: Adobe Illustrator 26.3.1, SVG Export Plug-In . SVG Version: 6.00 Build 0)  -->
<svg xmlns="http://www.w3.org/2000/svg" xmlns:xlink="http://www.w3.org/1999/xlink" version="1.1" id="Layer_1" x="0px" y="0px" viewBox="0 0 512 512" style="enable-background:new 0 0 512 512;" xml:space="preserve">
    <style type="text/css">
	.st0{fill:none;}
	.st1{fill:#FF6465;}
	.st2{fill:#E65A5B;}
	.st3{fill:#3F3F4D;}
	.st4{fill:#707287;}
	.st5{fill:#AFB6C7;}
	.st6{opacity:0.1;enable-background:new    ;}
	.st7{fill:#5FBA91;}
	.st8{fill:#6BD1A3;}
</style>
    <path class="st0" d="z" />
    <path class="st1" d="M256,276.9v94c0,32.9,26.7,59.6,59.6,59.6h31.6V276.9H256z" />
    <path class="st2" d="M256,331.9L256,331.9c10.7,0,19.5,8.7,19.5,19.5V415c10.6,9.7,24.7,15.5,40.1,15.5h31.6V276.9H256L256,331.9  L256,331.9z" />
    <path class="st3" d="M80.9,140.4v76.8c0,48,78.4,86.9,175.1,86.9l0,0c26.1,0,47.3,21.2,47.3,47.3v96.7c0,35.3,28.6,63.9,63.9,63.9  l0,0c35.3,0,63.9-28.6,63.9-63.9V140.4H80.9z" />
    <ellipse class="st4" cx="256" cy="140.4" rx="175.1" ry="86.8" />
    <ellipse class="st3" cx="211.5" cy="140.4" rx="65.2" ry="34.9" />
    <path class="st5" d="M191.3,36.9v92.3c0,11.1,9,20.2,20.2,20.2l0,0c11.1,0,20.2-9,20.2-20.2V36.9C231.6,36.9,191.3,36.9,191.3,36.9z  " />
    <path class="st6" d="M191.3,105.9c6.4,1.3,13.1,2,20.2,2c7.1,0,13.8-0.7,20.2-2v-69h-40.4L191.3,105.9L191.3,105.9z" />
    <path class="st2" d="M254.2,56.7c0,12.9-19.1,23.3-42.7,23.3s-42.7-10.4-42.7-23.3V23.3h85.4V56.7L254.2,56.7z" />
    <ellipse class="st1" cx="211.5" cy="23.3" rx="42.7" ry="23.3" />
    <path class="st7" d="M355.8,95.1c0,10.7-16,19.4-35.6,19.4s-35.6-8.7-35.6-19.4V67.2h71.3L355.8,95.1L355.8,95.1z" />
    <ellipse class="st8" cx="320.2" cy="67.2" rx="35.6" ry="19.4" />
    <path class="st2" d="M399.2,149.7c0,10.7-16,19.4-35.6,19.4c-19.7,0-35.6-8.7-35.6-19.4v-27.9h71.3L399.2,149.7L399.2,149.7z" />
    <ellipse class="st1" cx="363.6" cy="121.8" rx="35.6" ry="19.4" />
    <path class="st0" d="z" />
</svg>