<?xml version="1.0" encoding="utf-8"?>
<!-- Generator: Adobe Illustrator 27.1.1, SVG Export Plug-In . SVG Version: 6.00 Build 0)  -->
<svg version="1.1" id="Layer_1" xmlns="http://www.w3.org/2000/svg" xmlns:xlink="http://www.w3.org/1999/xlink" x="0px" y="0px"
	 viewBox="0 0 650.4 688.5" width="650.4" height="688.5" style="enable-background:new 0 0 650.4 688.5;" xml:space="preserve">
<style type="text/css">
	.st0{fill:url(#SVGID_1_);}
	.st1{fill:url(#SVGID_00000032633507584151076200000005742445308332627075_);}
</style>
<g>
	
		<linearGradient id="SVGID_1_" gradientUnits="userSpaceOnUse" x1="0" y1="341.0029" x2="2876.1504" y2="341.0029" gradientTransform="matrix(1 0 0 -1 -9.094947e-13 691.0029)">
		<stop  offset="0" style="stop-color:#F0060B"/>
		<stop  offset="0" style="stop-color:#F0070C"/>
		<stop  offset="0.526" style="stop-color:#CC26D5"/>
		<stop  offset="1" style="stop-color:#7702FF"/>
	</linearGradient>
	<path class="st0" d="M1138.4,561.2h90.4l-164.6-468H959.4l-164.6,468h90.3L923.6,446h175.9L1138.4,561.2L1138.4,561.2z
		 M946.7,377.7l63.3-188.4h3.6l63.3,188.4H946.7L946.7,377.7z M1318.1,355.6v205.6h-82.7V210.4h79.1v59.7h4.1
		c8.1-19.7,21.1-35.2,38.8-46.7c17.7-11.5,39.8-17.3,65.9-17.3c24.2,0,45.3,5.3,63.5,15.6c18,10.3,32.1,25.4,41.9,45.1
		c10.1,19.7,14.9,43.4,14.6,71.4v223.1h-82.7V350.6c0-23.5-6-41.7-18.2-55.1c-12.2-13.2-28.8-19.9-50.1-19.9
		c-14.4,0-27.3,3.1-38.6,9.6c-11.3,6.2-19.9,15.3-26.4,27.3C1321.5,324.2,1318.1,338.6,1318.1,355.6L1318.1,355.6z M1725.8,700
		c-29.7,0-55.1-4.1-76.5-12c-21.3-7.9-38.3-18.7-51.3-32.1c-12.9-13.4-22-28.3-26.8-44.6l74.5-18c3.4,6.9,8.1,13.7,14.6,20.4
		c6.5,6.7,15.1,12.5,25.9,17c10.8,4.6,24.7,6.7,41.2,6.7c23.5,0,42.9-5.8,58.2-17c15.3-11.3,23-30,23-55.8v-66.4h-4.1
		c-4.3,8.6-10.5,17.3-18.7,26.4c-8.1,9.1-18.9,16.5-32.1,22.5c-13.4,6-30,9.1-50.1,9.1c-26.8,0-51.3-6.5-73.3-19.2
		c-21.8-12.7-39.3-31.9-52-57c-12.9-25.4-19.4-57-19.4-95.4c0-38.3,6.5-71.2,19.4-97.8c12.9-26.6,30.2-46.7,52.2-60.6
		c22-13.9,46.5-20.6,73.3-20.6c20.6,0,37.6,3.4,50.8,10.3c13.4,7,24,15.3,31.9,24.9c7.9,9.6,13.9,18.7,18,27.3h4.6v-58h81.5v356.6
		c0,30-7.2,54.9-21.6,74.5c-14.4,19.6-33.8,34.3-58.7,44.1C1785.5,695.2,1757.2,700,1725.8,700z M1726.5,491.3
		c17.5,0,32.4-4.3,44.8-12.7c12.2-8.6,21.8-20.8,28-36.7c6.5-16.1,9.6-35.2,9.6-57.5c0-22.3-3.1-41.5-9.6-58
		c-6.2-16.5-15.6-29.5-27.8-38.8c-12.2-9.1-27.3-13.9-45.1-13.9s-33.8,4.8-46.3,14.4c-12.2,9.6-21.6,22.8-27.8,39.3
		c-6.2,16.8-9.3,35.7-9.3,56.8c0,21.1,3.1,40.3,9.6,56.3c6.2,16.1,15.6,28.5,28,37.4C1693,486.7,1708.3,491.3,1726.5,491.3
		L1726.5,491.3z M2141.1,413.6V210.4h82.7v350.8h-80.3v-62.3h-3.6c-7.9,19.6-20.9,35.7-39.1,48.2c-18,12.5-40.3,18.7-66.6,18.7
		c-23,0-43.4-5-60.9-15.3c-17.5-10.3-31.4-25.2-41.2-45.1c-9.8-19.6-14.9-43.6-14.9-71.7V210.4h82.9v210.6c0,22.3,6,40,18.2,53
		c12.2,13.2,28.3,19.6,47.9,19.6c12.2,0,24-2.9,35.5-8.9c11.5-6,20.8-14.9,28.3-26.6C2137.5,446.2,2141.1,431.4,2141.1,413.6
		L2141.1,413.6z M2333.6,93.2v468h-82.7v-468L2333.6,93.2L2333.6,93.2z M2464.9,568.2c-22.3,0-42.2-4.1-59.9-12
		c-17.7-7.9-31.9-19.9-41.9-35.5c-10.3-15.6-15.3-35-15.3-58c0-19.9,3.6-36.2,11-49.1c7.4-12.9,17.3-23.2,30-31.2
		c12.7-7.7,26.8-13.7,42.9-17.7c15.8-4.1,32.4-7,49.4-8.9c20.6-2.2,37.1-4.1,50.1-5.8c12.7-1.7,22-4.6,28-8.1
		c5.7-3.8,8.9-9.6,8.9-17.5V323c0-17.3-5-30.4-15.3-40c-10.3-9.3-24.9-14.1-44.1-14.1c-20.4,0-36.2,4.3-48.2,13.2
		c-11.7,8.9-19.7,19.2-24,31.4l-77.2-11c6-21.3,16.1-39.1,30.2-53.7c13.9-14.4,31.2-25.2,51.3-32.3c20.4-7.2,42.7-10.8,67.1-10.8
		c17,0,33.8,1.9,50.6,6s32.1,10.5,46,19.7c13.9,9.1,24.9,21.3,33.6,36.9c8.4,15.6,12.7,35,12.7,58.2v234.8h-79.6v-48.2h-2.6
		c-5,9.8-12,18.9-21.1,27.3c-9.1,8.4-20.4,15.3-34,20.4C2499.2,565.8,2483.3,568.2,2464.9,568.2L2464.9,568.2z M2486.5,507.6
		c16.5,0,30.9-3.4,43.1-9.8c12.2-6.7,21.6-15.3,28.3-26.4c6.7-11,9.8-23,9.8-35.9V394c-2.6,2.2-7,4.1-13.2,6
		c-6.2,1.9-12.9,3.4-20.6,4.8c-7.7,1.4-15.1,2.6-22.5,3.6c-7.4,1-13.9,1.9-19.4,2.6c-12.2,1.7-23.5,4.3-33.1,8.1
		c-9.8,3.8-17.5,9.1-23,15.8c-5.8,6.7-8.4,15.6-8.4,26.1c0,15.3,5.5,26.8,16.8,34.5C2455.1,503.7,2469.2,507.6,2486.5,507.6
		L2486.5,507.6z M2675.8,561.2V210.4h80.3v58.5h3.6c6.5-20.4,17.5-35.9,33.1-47c15.6-11,33.6-16.5,53.7-16.5c4.6,0,9.8,0.2,15.3,0.5
		c5.8,0.5,10.5,1,14.4,1.7v76c-3.6-1.2-9.1-2.4-16.5-3.4c-7.2-0.9-14.5-1.4-21.8-1.4c-15.1,0-28.5,3.4-40.5,9.8
		c-12,6.5-21.3,15.3-28.3,26.8c-7,11.5-10.3,24.7-10.3,39.5v206.3L2675.8,561.2L2675.8,561.2z M650.4,114.8l-23.5,368.8L402.4,0
		L650.4,114.8z M494.9,591.7l-169.7,96.8l-169.7-96.8L190,508h270.3L494.9,591.7z M325.2,183.6l88.9,216.2H236.3
		C236.3,399.7,325.2,183.6,325.2,183.6z M23.2,483.6L0,114.8L248,0L23.2,483.6z"/>
	
		<radialGradient id="SVGID_00000103267283397857720680000005831724453740206260_" cx="-175.5945" cy="848.8547" r="2.9289" gradientTransform="matrix(-97.0011 181.4992 181.4992 97.0011 -170204.5156 -50649.7344)" gradientUnits="userSpaceOnUse">
		<stop  offset="0" style="stop-color:#FF41F8"/>
		<stop  offset="0.707" style="stop-color:#FF41F8;stop-opacity:0.5"/>
		<stop  offset="1" style="stop-color:#FF41F8;stop-opacity:0"/>
	</radialGradient>
	<path style="fill:url(#SVGID_00000103267283397857720680000005831724453740206260_);" d="M1138.4,561.2h90.4l-164.6-468H959.4
		l-164.6,468h90.3L923.6,446h175.9L1138.4,561.2L1138.4,561.2z M946.7,377.7l63.3-188.4h3.6l63.3,188.4H946.7L946.7,377.7z
		 M1318.1,355.6v205.6h-82.7V210.4h79.1v59.7h4.1c8.1-19.7,21.1-35.2,38.8-46.7c17.7-11.5,39.8-17.3,65.9-17.3
		c24.2,0,45.3,5.3,63.5,15.6c18,10.3,32.1,25.4,41.9,45.1c10.1,19.7,14.9,43.4,14.6,71.4v223.1h-82.7V350.6c0-23.5-6-41.7-18.2-55.1
		c-12.2-13.2-28.8-19.9-50.1-19.9c-14.4,0-27.3,3.1-38.6,9.6c-11.3,6.2-19.9,15.3-26.4,27.3C1321.5,324.2,1318.1,338.6,1318.1,355.6
		L1318.1,355.6z M1725.8,700c-29.7,0-55.1-4.1-76.5-12c-21.3-7.9-38.3-18.7-51.3-32.1c-12.9-13.4-22-28.3-26.8-44.6l74.5-18
		c3.4,6.9,8.1,13.7,14.6,20.4c6.5,6.7,15.1,12.5,25.9,17c10.8,4.6,24.7,6.7,41.2,6.7c23.5,0,42.9-5.8,58.2-17
		c15.3-11.3,23-30,23-55.8v-66.4h-4.1c-4.3,8.6-10.5,17.3-18.7,26.4c-8.1,9.1-18.9,16.5-32.1,22.5c-13.4,6-30,9.1-50.1,9.1
		c-26.8,0-51.3-6.5-73.3-19.2c-21.8-12.7-39.3-31.9-52-57c-12.9-25.4-19.4-57-19.4-95.4c0-38.3,6.5-71.2,19.4-97.8
		c12.9-26.6,30.2-46.7,52.2-60.6c22-13.9,46.5-20.6,73.3-20.6c20.6,0,37.6,3.4,50.8,10.3c13.4,7,24,15.3,31.9,24.9
		c7.9,9.6,13.9,18.7,18,27.3h4.6v-58h81.5v356.6c0,30-7.2,54.9-21.6,74.5c-14.4,19.6-33.8,34.3-58.7,44.1
		C1785.5,695.2,1757.2,700,1725.8,700z M1726.5,491.3c17.5,0,32.4-4.3,44.8-12.7c12.2-8.6,21.8-20.8,28-36.7
		c6.5-16.1,9.6-35.2,9.6-57.5c0-22.3-3.1-41.5-9.6-58c-6.2-16.5-15.6-29.5-27.8-38.8c-12.2-9.1-27.3-13.9-45.1-13.9
		s-33.8,4.8-46.3,14.4c-12.2,9.6-21.6,22.8-27.8,39.3c-6.2,16.8-9.3,35.7-9.3,56.8c0,21.1,3.1,40.3,9.6,56.3
		c6.2,16.1,15.6,28.5,28,37.4C1693,486.7,1708.3,491.3,1726.5,491.3L1726.5,491.3z M2141.1,413.6V210.4h82.7v350.8h-80.3v-62.3h-3.6
		c-7.9,19.6-20.9,35.7-39.1,48.2c-18,12.5-40.3,18.7-66.6,18.7c-23,0-43.4-5-60.9-15.3c-17.5-10.3-31.4-25.2-41.2-45.1
		c-9.8-19.6-14.9-43.6-14.9-71.7V210.4h82.9v210.6c0,22.3,6,40,18.2,53c12.2,13.2,28.3,19.6,47.9,19.6c12.2,0,24-2.9,35.5-8.9
		c11.5-6,20.8-14.9,28.3-26.6C2137.5,446.2,2141.1,431.4,2141.1,413.6L2141.1,413.6z M2333.6,93.2v468h-82.7v-468L2333.6,93.2
		L2333.6,93.2z M2464.9,568.2c-22.3,0-42.2-4.1-59.9-12c-17.7-7.9-31.9-19.9-41.9-35.5c-10.3-15.6-15.3-35-15.3-58
		c0-19.9,3.6-36.2,11-49.1c7.4-12.9,17.3-23.2,30-31.2c12.7-7.7,26.8-13.7,42.9-17.7c15.8-4.1,32.4-7,49.4-8.9
		c20.6-2.2,37.1-4.1,50.1-5.8c12.7-1.7,22-4.6,28-8.1c5.7-3.8,8.9-9.6,8.9-17.5V323c0-17.3-5-30.4-15.3-40
		c-10.3-9.3-24.9-14.1-44.1-14.1c-20.4,0-36.2,4.3-48.2,13.2c-11.7,8.9-19.7,19.2-24,31.4l-77.2-11c6-21.3,16.1-39.1,30.2-53.7
		c13.9-14.4,31.2-25.2,51.3-32.3c20.4-7.2,42.7-10.8,67.1-10.8c17,0,33.8,1.9,50.6,6s32.1,10.5,46,19.7
		c13.9,9.1,24.9,21.3,33.6,36.9c8.4,15.6,12.7,35,12.7,58.2v234.8h-79.6v-48.2h-2.6c-5,9.8-12,18.9-21.1,27.3
		c-9.1,8.4-20.4,15.3-34,20.4C2499.2,565.8,2483.3,568.2,2464.9,568.2L2464.9,568.2z M2486.5,507.6c16.5,0,30.9-3.4,43.1-9.8
		c12.2-6.7,21.6-15.3,28.3-26.4c6.7-11,9.8-23,9.8-35.9V394c-2.6,2.2-7,4.1-13.2,6c-6.2,1.9-12.9,3.4-20.6,4.8
		c-7.7,1.4-15.1,2.6-22.5,3.6c-7.4,1-13.9,1.9-19.4,2.6c-12.2,1.7-23.5,4.3-33.1,8.1c-9.8,3.8-17.5,9.1-23,15.8
		c-5.8,6.7-8.4,15.6-8.4,26.1c0,15.3,5.5,26.8,16.8,34.5C2455.1,503.7,2469.2,507.6,2486.5,507.6L2486.5,507.6z M2675.8,561.2V210.4
		h80.3v58.5h3.6c6.5-20.4,17.5-35.9,33.1-47c15.6-11,33.6-16.5,53.7-16.5c4.6,0,9.8,0.2,15.3,0.5c5.8,0.5,10.5,1,14.4,1.7v76
		c-3.6-1.2-9.1-2.4-16.5-3.4c-7.2-0.9-14.5-1.4-21.8-1.4c-15.1,0-28.5,3.4-40.5,9.8c-12,6.5-21.3,15.3-28.3,26.8
		c-7,11.5-10.3,24.7-10.3,39.5v206.3L2675.8,561.2L2675.8,561.2z M650.4,114.8l-23.5,368.8L402.4,0L650.4,114.8z M494.9,591.7
		l-169.7,96.8l-169.7-96.8L190,508h270.3L494.9,591.7z M325.2,183.6l88.9,216.2H236.3C236.3,399.7,325.2,183.6,325.2,183.6z
		 M23.2,483.6L0,114.8L248,0L23.2,483.6z"/>
</g>
</svg>
