<?xml version="1.0" encoding="utf-8"?>
<!-- Generator: Adobe Illustrator 27.1.1, SVG Export Plug-In . SVG Version: 6.00 Build 0)  -->
<svg version="1.1" id="Layer_1" xmlns="http://www.w3.org/2000/svg" xmlns:xlink="http://www.w3.org/1999/xlink" x="0px" y="0px"
	 viewBox="0 0 256 208" style="enable-background:new 0 0 256 208;" xml:space="preserve" width="256" height="208">
<style type="text/css">
	.st0{display:none;fill:#FFFFFF;}
	.st1{fill:#265787;}
	.st2{fill:#EA7600;}
</style>
<g>
	<path class="st0" d="M100.4,115.2c0.9-16.6,9.1-31.2,21.3-41.6c12-10.2,28.2-16.4,45.9-16.4c17.7,0,33.8,6.2,45.9,16.4
		c12.3,10.4,20.4,25,21.3,41.6c0.9,17.1-5.9,32.9-18,44.7c-12.3,12-29.7,19.5-49.3,19.5s-37-7.5-49.3-19.5
		C106.3,148.1,99.5,132.2,100.4,115.2z"/>
	<path class="st1" d="M133.2,116.7c0.5-8.5,4.6-16,10.9-21.3c6.2-5.2,14.5-8.4,23.5-8.4c9.1,0,17.4,3.2,23.5,8.4
		c6.3,5.3,10.5,12.8,10.9,21.3c0.5,8.8-3,16.9-9.2,22.9c-6.3,6.1-15.2,10-25.3,10s-19-3.8-25.3-10
		C136.2,133.6,132.7,125.4,133.2,116.7z"/>
	<path class="st2" d="M78.4,134.2c0.1,3.3,1.1,9.8,2.7,14.9c3.4,10.7,9.1,20.7,17,29.4c8.1,9,18.2,16.2,29.7,21.3
		c12.2,5.4,25.3,8.1,39,8.1c13.7,0,26.8-2.8,39-8.2c11.6-5.2,21.6-12.4,29.7-21.4c7.9-8.8,13.6-18.7,17-29.5
		c1.7-5.4,2.8-10.9,3.2-16.4c0.4-5.4,0.2-10.9-0.5-16.3c-1.5-10.6-5.2-20.6-10.8-29.6c-5.2-8.3-11.8-15.6-19.8-21.8l0,0l-80-61.4
		c-0.1-0.1-0.1-0.1-0.2-0.2c-5.2-4-14.1-4-19.8,0c-5.8,4.1-6.5,10.8-1.3,15.1l0,0l33.4,27.1L55,45.4h-0.1c-8.4,0-16.5,5.5-18.1,12.5
		c-1.6,7.1,4.1,13,12.8,13l0,0l51.5-0.1l-92,70.6c-0.1,0.1-0.2,0.2-0.4,0.3c-8.7,6.6-11.5,17.7-6,24.7c5.5,7.1,17.3,7.1,26.1,0
		l50.2-41.1C79.1,125.3,78.4,130.9,78.4,134.2z M207.4,152.7c-10.3,10.5-24.8,16.5-40.5,16.5c-15.7,0-30.2-5.9-40.5-16.4
		c-5.1-5.1-8.8-11-11.1-17.3c-2.2-6.2-3.1-12.7-2.5-19.3c0.5-6.5,2.5-12.6,5.5-18.2c3-5.5,7.2-10.4,12.3-14.6
		c10.1-8.2,22.8-12.6,36.2-12.6c13.4,0,26.2,4.4,36.2,12.5c5.1,4.2,9.3,9.1,12.3,14.6c3.1,5.6,5,11.7,5.6,18.2
		c0.6,6.6-0.3,13.1-2.5,19.3C216.1,141.7,212.4,147.6,207.4,152.7z"/>
</g>
</svg>
