<?xml version="1.0" encoding="utf-8"?>
<!-- Generator: Adobe Illustrator 27.1.1, SVG Export Plug-In . SVG Version: 6.00 Build 0)  -->
<svg version="1.1" id="Layer_1" xmlns="http://www.w3.org/2000/svg" xmlns:xlink="http://www.w3.org/1999/xlink" x="0px" y="0px"
	 viewBox="0 0 256 288" style="enable-background:new 0 0 256 288;" xml:space="preserve">
<style type="text/css">
	.st0{fill:#A179DC;}
	.st1{fill:#390091;}
	.st2{fill:#280068;}
</style>
<g>
	<path class="st0" d="M255.6,84.5c0-4.8-1-9.1-3.1-12.8c-2.1-3.6-5.1-6.6-9.2-9c-34-19.6-68.1-39.2-102.1-58.8
		c-9.2-5.3-18.1-5.1-27.2,0.3c-13.5,8-81.3,46.8-101.6,58.5C4.1,67.5,0,74.9,0,84.4c0,39.5,0,78.9,0,118.4c0,4.7,1,8.9,3,12.5
		c2.1,3.7,5.2,6.8,9.4,9.3c20.2,11.7,88,50.5,101.6,58.5c9.1,5.4,18,5.6,27.2,0.3c34-19.6,68.1-39.2,102.1-58.8
		c4.2-2.4,7.3-5.5,9.4-9.3c2-3.6,3-7.8,3-12.5C255.6,202.8,255.6,123.9,255.6,84.5z M129.5,238.6l-1.1,0c-35.3,0-66-19.2-82.4-47.7
		c-8-13.9-12.6-30.1-12.6-47.3c0-52.5,42.5-95,95-95c35,0,65.6,19,82.1,47.2l0,0l0.2,0.3c-0.1-0.1-0.1-0.2-0.2-0.3l-41.3,23.8
		c-8.1-13.8-23.1-23.1-40.2-23.3l-0.5,0c-26.1,0-47.3,21.2-47.3,47.3c0,8.5,2.3,16.6,6.2,23.5c8.2,14.2,23.5,23.8,41.1,23.8
		c17.7,0,33.1-9.7,41.2-24.1l-0.2,0.3l41.3,23.9C194.5,219.2,164.3,238.2,129.5,238.6z M235.6,136.5h-13.5V150h13.5v6.7h-13.5v13.5
		h-6.7v-13.5h-13.5v13.5h-6.7v-13.5h-13.5V150h13.5v-13.5h-13.5v-6.7h13.5v-13.5h6.7v13.5h13.5v-13.5h6.7v13.5h13.5V136.5z"/>
	<g>
		<rect x="201.9" y="136.5" class="st1" width="13.5" height="13.5"/>
		<path class="st1" d="M255.6,84.5c0-4.8-1-9.1-3.1-12.8l-124.3,71.6l124.4,72.1c2-3.6,3-7.8,3-12.5
			C255.6,202.8,255.6,123.9,255.6,84.5z M235.6,136.5h-13.5V150h13.5v6.7h-13.5v13.5h-6.7v-13.5h-13.5v13.5h-6.7v-13.5h-13.5V150
			h13.5v-13.5h-13.5v-6.7h13.5v-13.5h6.7v13.5h13.5v-13.5h6.7v13.5h13.5V136.5z"/>
	</g>
	<g>
		<path class="st2" d="M128.5,190.9c17.6,0,32.9-9.6,41-23.8l-41.3-23.9l-40.9,23.6c0.1,0.1,0.1,0.2,0.1,0.3
			C95.5,181.3,110.9,190.9,128.5,190.9z"/>
		<path class="st2" d="M210.8,191.1c-16.3,28.1-46.5,47.2-81.3,47.5l-1.1,0c-35.3,0-66-19.2-82.4-47.7c-0.1-0.1-0.1-0.2-0.2-0.3
			L3,215.3c2.1,3.7,5.2,6.8,9.4,9.3c20.2,11.7,88,50.5,101.6,58.5c9.1,5.4,18,5.6,27.2,0.3c34-19.6,68.1-39.2,102.1-58.8
			c4.2-2.4,7.3-5.5,9.4-9.3L210.8,191.1z"/>
	</g>
</g>
</svg>
