<?xml version="1.0" encoding="utf-8"?>
<!-- Generator: Adobe Illustrator 27.1.1, SVG Export Plug-In . SVG Version: 6.00 Build 0)  -->
<svg version="1.1" id="Layer_1" xmlns="http://www.w3.org/2000/svg" xmlns:xlink="http://www.w3.org/1999/xlink" x="0px" y="0px"
	 viewBox="0 0 984 730" style="enable-background:new 0 0 984 730;" xml:space="preserve" width="984" height="730">
<style type="text/css">
	.st0{fill:#D10505;}
	.st1{fill:#111111;}
</style>
<path class="st0" d="M785,54c16.5-0.2,29.6,15.6,29.2,29.3s-12.1,30.9-30.4,30S757,96.5,756.5,93.9c-2.2,0.1-65.3-0.4-65.3-0.4
	l-48.6,173.1l3.8,6.5l-8,26.6c0,0-17.6-28.2-18.2-29.3c-0.8-1.3-0.9-2.8-0.4-4.2c0.4-1,45.8-164.9,53.5-186c1.9-5.2,5.6-7.6,9.9-7.6
	c-10.3,0,70.5-0.1,74.1,0C757.6,67.6,768.5,54.2,785,54z M784.2,75.3c-6,0.1-8.3,4.6-8.4,8.4s1.2,8.5,8.4,8.4s8.6-6.1,8.4-9.1
	S790.3,75.2,784.2,75.3L784.2,75.3z M689.7,342.7l58.5,94.7c0,0,0,3.7,0,5.8c-0.3,46.7-0.4,94-0.7,140.6c0.1,1.4-0.2,2.9-0.8,4.2
	c-9.7,19.6-27.2,55.2-29.6,60.5c0,1.5,9.9,12.7,1.5,29.7s-30.9,18.9-42.9,11s-16.5-25.2-9.5-38.4s22.2-18,33-14.8
	c3.7-6.7,18.1-36.3,26.6-53.6v-66.2c0,0-23-23.7-25.5-26.2c-3.2,2.9-23.6,7.5-35.2-6.1s-9.1-30.5,0.4-40.3s27.6-14.2,41.4-1.5
	s9.3,27.1,7.6,32.3c3.7,3.1,11.8,11.4,11.8,11.4l0.4-42.6l-44.4-73.4L689.7,342.7z M680.9,457.5c-2.4,3.2-4.1,8.9-0.4,11.8
	s7.7,4.7,12.2,0.4s2.4-9.9-0.4-12.6S683.3,454.4,680.9,457.5L680.9,457.5z M696.1,656.8c-4.9-2.5-10.3,0.7-11,2.7s-3.9,8.2,2.7,12.2
	s10.9-1.6,12.2-3.4S701,659.4,696.1,656.8L696.1,656.8z"/>
<g>
	<path class="st1" d="M228.8,547.1c1.2-44.6,52.6-58.9,61-95.2c8.4-36.3-10-26.2-4.9-44.7c5-18.6,74-96.5,72.1-260.9
		c-4.6-45.4-14-68-43.4-114.9c-87.2-42-139-44.4-212.5,36.1c40.4,97.7,103.9,113.7,196.2,99.7c5.3,8.6,32.3,38.9,31.9,61.1
		c-1.4,35.7-7.1,82.9-31.9,114.9s-56.7,79.4-73.3,155.1c-19.7,88.1,8.7,117.3,38.5,167.8c18.5,19.5,16.2,5.3,9-4.1
		C264.1,652.6,227.5,591.7,228.8,547.1z M309.9,121.3c0,0-44.6,21.6-78.2,18c-60.3-6.4-83.3-75.1-83.1-74.3
		c0.1,0.3,23.2-12.5,44.2-16.4c10.2-1.9,20.6-2.8,30.9-2.6c0,0-9.2,38.5,20.9,39.5c25,0.8,19.4-35.3,19.4-35.3s20.8,3.8,30.3,11.1
		c45.5,34.9,44.4,105.2,45.9,122.3C335.2,159.9,309.9,121.3,309.9,121.3z"/>
	<path class="st1" d="M361.5,505.1c7.9,6.3,101.4,92,101.4,92l33.4-121.7c0,0-116.7,3.8-129.9,4.6
		C359.9,480.4,351,496.6,361.5,505.1z"/>
	<path class="st1" d="M921.7,0c-30.8,0.3-139.1,1.3-273.8,2.3c-14.8,0.5-15.8,1.4-20.5,16s-95.3,351-178.1,656.1
		c-2.1,7.1-7.7,12.5-14.1,12.9c-32.1,0.4-119.4,0.8-124.9,0.8c-5.5,0-13.2,5.4-14.4,9.5c-1.2,4.1-9.9,33.5-9.9,33.5
		s179.7-1.1,186.1-1.1c6.3-0.1,10.7-5.4,12.5-12.2c1.8-6.8,115.8-426.6,180.8-664.8c1.2-4.8,7.1-7.5,10.6-7.6s76.8,0.3,223.3,0.8
		c19.6,4,22,32.6,21.6,44.1c-0.3,11.5-1,44.8-22,47.5c-19.5,0.1-53,0.2-194.8,0.8c-8.1,0-13.1,1-16,10.6
		c-2.8,9.6-161.4,581.5-161.4,581.5s33.1,0.3,40.3,0.4c5.1,0.1,9.7-4.1,11.4-10.3c27.8-100.2,142.8-522.3,144.3-527.9
		c1.5-5.6,4.6-10.5,16.3-10.3s157.5-0.2,182.3-0.9c35.3-12.7,62.3-48.5,62.7-91.6C984.3,46.9,954.8,11.8,921.7,0z"/>
</g>
</svg>
