<?xml version="1.0" encoding="utf-8"?>
<!-- Generator: Adobe Illustrator 27.1.1, SVG Export Plug-In . SVG Version: 6.00 Build 0)  -->
<svg version="1.1" id="Layer_1" xmlns="http://www.w3.org/2000/svg" xmlns:xlink="http://www.w3.org/1999/xlink" x="0px" y="0px"
	 viewBox="0 0 800 594.9" style="enable-background:new 0 0 800 594.9;" xml:space="preserve" width="800" height="594.9">
<style type="text/css">
	.st0{fill:#367BF0;}
</style>
<path class="st0" d="M425.9,95.5c0,0-65.7-4.3-177.6,30.7c-114,35.7-178.7,86.2-178.7,86.2s169.9-94.9,361.7-100.3L425.9,95.5z
	 M671,198.7l8.6-0.6c0,0-48.9-59.3-142.6-88.3C589.6,131.3,635.4,159.6,671,198.7z M685,223.4c1.3-2.3,5.5,7.2,8.8,11.2
	c0.1,0.8,0.3,1.3-1.5,0.9c-0.2-0.8-0.4-1.1-0.4-1.1s-4.5-2.7-5.9-4.6C684.5,228,684.3,224.6,685,223.4L685,223.4z M799.9,506
	c0,0,10.4-119.3-177-146.8c-27.9-4-56-6.1-84.1-6.2c-150.2,2-155.7-173.2-42.5-182.1c46.9-3.9,102.9,21.4,157.7,46.9
	c-0.2,6.8,0.1,12.8,4.5,18.4c4.5,5.6,21.6,11.7,27.1,14.8c5.5,3.1,23,14.3,33.8,28.3c2.3-4.4,21.8-17.1,21.8-17.1s-4.7,0.1-15.5-4
	c-10.9-4.1-23.8-16.3-24.1-17c-0.3-0.7-0.5-1.8,2-2.3c2-1.6-2.4-6.9-4.3-8.8c-1.9-1.9-14.8-23.9-15.1-24.3c-0.3-0.5-0.4-1-1.3-1.7
	c-2.8-0.9-15.3,1.3-15.3,1.3s-19.2-9.4-25.8-29.8c0.1,3.6-3.3,7.5,0,15.6c-10-4.2-18.6-11.5-25.4-29.3c-4,10.2,0,16.6,0,16.6
	s-23.6-6.6-27.3-28.3c-4.1,9.8,0,15.6,0,15.6s-38.4-20.1-102.3-20.3c-42.8-3.9-51.7-79.1-47.7-91.8c0,0-61.7-32.5-183.1-46.9
	C134.5-7.3,34.9,4.8,34.9,4.8s215-10.3,387.2,59.4c5.9,26.2,23.5,69.8,33,90.8c-27.2,18.8-57.8,36.4-62.5,99
	c-4.8,62.6,49.1,117.7,115.8,119.3c63.3,3.4,107.1,3.9,160.2,31.4c50.7,28,92.2,113.3,96.3,190.1c4.4-57-17-179.4-116.7-216.6
	C787.6,402.7,799.9,506,799.9,506L799.9,506z M422.7,86.2l-5-16.2c0,0-82.8-14.7-194.1-6.8S0,110.1,0,110.1S229.9,52.3,422.7,86.2z"
	/>
</svg>
