<?xml version="1.0" encoding="utf-8"?>
<!-- Generator: Adobe Illustrator 27.1.1, SVG Export Plug-In . SVG Version: 6.00 Build 0)  -->
<svg version="1.1" id="katman_1" xmlns="http://www.w3.org/2000/svg" xmlns:xlink="http://www.w3.org/1999/xlink" x="0px" y="0px"
	 viewBox="0 0 860 819" style="enable-background:new 0 0 860 819;" xml:space="preserve" width="860" height="819">
<style type="text/css">
	.st0{fill:#FFCC00;}
</style>
<g>
	<path class="st0" d="M149,196.1l23-43.1c13.6-25.4,25.8-48.2,26.3-48.9c0.5-0.7-20.6-11.1-46.8-23.1l-4.1-1.9
		c-26.2-11.9-53.9-22.9-56.1-21.8C89,58.4,77.8,71,66.3,85.4c-11.4,14.4-21.7,28.3-22.8,30.8c0,0,0,0,0,2.8c0,2.2,0,2.2,0,2.2
		c0.7,1.9,13.1,20.9,27.4,42.1C85.3,184.5,135.3,221.4,149,196.1z"/>
	<path class="st0" d="M816.5,119c0-2.8,0-2.8,0-2.8c-1.1-2.5-11.4-16.4-22.8-30.8c-11.5-14.4-25-28.4-28-28.3
		c-2.9,0.1-26.8,9.9-53,21.9l-4.1,1.9c-26.2,12-46.4,23.8-46,24.5c0.4,0.8,11.9,22.2,25.5,47.6l23.1,43.1
		c13.5,25.4,63.6-11.5,77.9-32.8c14.3-21.2,26.7-40.2,27.4-42.1C816.5,121.2,816.5,121.2,816.5,119z"/>
	<path class="st0" d="M499.3,551.7c27,6.7,53.9,15.5,80.3,26.2c0.1-0.1,0.1-0.2,0.2-0.3c2.3-3.2,9.4-17.4,9.8-23.6
		c0.3-4-0.8-14.3-2.6-26.6l-8.4-43.2c-0.2-1.2-0.3-2.4-0.4-3.5c-1.6-8.2-2.6-13.7-2.6-14.2c0-0.8,12.7,17.1,28.3,39.8
		c15.5,22.7,27.6,51.9,26.8,56.1c-0.8,4.2,15.6,3.3,36.4-1.9c20.8-5.3,45.1-13.8,47.2-17.4c2.1-3.5,7.8-29.7,12.6-58.1l10.3-60.6
		c4.8-28.4,8.5-57.4,8.2-64.4s-8-26.8-11.9-33.9c-3.8-7.1-18-33.7-31.6-59.1l-50.6-94.4c-13.6-25.4-32.7-55.5-38-58.4
		c-3.4-1.9-6.5-3.5-8.5-4.5L491.5,82.7c-26.6-5.8-58-11.2-65.1-10.7c-6.4,0.5-26.3,4.2-48.2,9l-123.4,28.8l-0.9,0.2
		c-3.8,1.9-10.4,5.5-13.3,8.5c-4.2,4.3-18.7,28.6-32.3,54l-50.5,94.4c-13.6,25.4-27.8,52-31.6,59.1c-3.8,7.1-11.6,26.8-11.9,33.9
		c-0.3,7,3.4,36,8.2,64.4l10.3,60.6c4.8,28.4,12.4,59.1,15.8,61.5c3.3,2.4,23.1,8.5,43.9,13.7c20.8,5.2,35.8-1.2,35.5-5.3
		c-0.3-4.1,12.2-25.9,27.8-48.6c15.5-22.6,28.2-39.1,28.1-38.3c-0.1,0.4-0.9,5-2.3,12.1c0,1.4-0.1,2.7-0.4,4.1l-7.5,38.6
		c-2.4,16.9-3.7,34.2-2,38.5c2.1,5.7,5.7,13,7.9,16c0.2,0.2,0.4,0.5,0.6,0.9c26.8-10.8,54.1-19.7,81.6-26.6
		c7.7-1.9,9.3,9.6,2.1,11.9c-26,7.9-50.7,17.1-74.4,27.5c3.2,4.4,6.9,9.5,10.7,14.8c20.6-11.1,42.2-18.6,64.1-20.6
		c6.2-0.5,8,8.5,1.7,9.7c-21.4,4.2-40.3,12-57.7,22.2c4.7,6.5,10.3,14.3,16.3,22.6c14.7-9.8,30.3-17.3,46.6-21.7
		c5.3-1.4,8.1,7.4,2.9,9.2c-15.7,5.9-29.5,13.7-42,22.8c5.8,8,11.6,16.1,16.7,23.2c3.2,4.5,6.7,9.1,10.3,13.6
		c0.6-0.5,1.2-0.9,1.8-1.3l38.1-26c11.5-7.8,20.7-15,20.7-15.3s0-11.9,0-25.8v-38.1c-0.4-0.6-0.7-1.3-1.1-2l-61.8-70.4
		c-6.2-12.4,0.1-22.5,13.9-22.5h118.5c13.8,0,20.1,10.2,13.9,22.5l-62,70.4c-0.3,0.5-0.5,1-0.8,1.5v38.6c0,13.9-0.1,26.1-0.1,26.4
		s9.3,7,20.8,14.8l38.1,26c0.6,0.4,1.1,0.8,1.7,1.2c3.2-4.2,6.5-8.7,9.7-13.2c5.3-7.2,11.2-15.5,17.1-23.7
		c-12.4-9-26-16.6-41.3-22.4c-6.1-2.3-2.6-10.8,3.4-9.2c15.9,4.2,31.1,11.6,45.5,21.1c5.9-8.2,11.6-16,16.2-22.5
		c-17.2-10.1-35.9-17.8-57-21.9c-6.1-1.2-5.5-10.4,1-9.8c21.9,2,43.5,9.5,64.1,20.6c3.8-5.2,7.5-10.3,10.7-14.8
		c-24-10.6-48.9-20-75.2-27.9C487.5,560.7,491.9,549.9,499.3,551.7z M336.8,137c4.6-14.6,14.3-24.5,21.6-22.2s9.4,16.1,4.8,30.6
		c-4.6,14.6-14.3,24.5-21.6,22.2S332.2,151.6,336.8,137z M312.1,214c9,0,16.2,6.2,16.2,13.8c0,7.7-7.2,13.9-16.2,13.9
		c-8.9,0-16.2-6.2-16.2-13.9S303.1,214,312.1,214z M267.7,119.4c15.3,0.1,27.7,15.6,27.7,34.7c0,19.1-12.4,34.6-27.7,34.6
		c-15.3,0-27.7-15.5-27.7-34.6C240,135,252.4,119.4,267.7,119.4z M234.9,197.6c12.8,0,23.1,10.3,23.1,23.1
		c0,12.8-10.3,23.1-23.1,23.1c-12.8,0-23.1-10.3-23.1-23.1C211.8,207.9,222.1,197.6,234.9,197.6z M380.5,333.7
		c-0.4,9.3-1.2,29-1.9,43.9l-12.9,51.8c-0.6,14.9-1.2,27.5-1.2,28.1c0,0.5-5.9,0.6-12.9,0.1c-7-0.6-11.6-13.1-10.3-27.9l15.8-55.2
		c1.4-14.8-9.6-28.6-24.3-30.7l-12.3-1.8c-0.9,8.6-8.2,15.4-17.1,15.4c-9.5,0-17.1-7.7-17.1-17.2c0-1,0.1-2,0.3-3l-77.4-11.1
		c-14.7-2.1-14.6-4.2,0.3-4.6l125.8-3.4c14.9-0.4,31.3-0.8,36.5-1S380.9,324.4,380.5,333.7z M674.5,433.3
		c2.4-15.1,10.4-26.4,18-25.2c7.6,1.2,11.8,14.4,9.4,29.5c-2.4,15.1-10.4,26.4-18,25.2C676.4,461.7,672.1,448.4,674.5,433.3z
		 M669.1,492.3c5.7-11.4,19.6-16.1,31-10.3c11.4,5.7,16.1,19.6,10.4,31c-5.7,11.4-19.6,16-31,10.3
		C668,517.6,663.4,503.7,669.1,492.3z M661,482.8c-3.4,6.9-12.7,9.2-20.7,5.2s-11.7-12.8-8.3-19.6s12.7-9.2,20.7-5.2
		C660.7,467.2,664.4,476,661,482.8z M495.4,457.4c-0.1-0.6-0.7-13.2-1.3-28.1l-12.9-51.8c-0.6-14.8-1.5-34.6-1.9-43.9
		s3.6-16.8,8.8-16.6c5.2,0.1,21.6,0.6,36.5,1l125.8,3.4c14.9,0.4,15,2.5,0.3,4.6l-77.3,11.1c0.2,1,0.3,2.1,0.3,3.1
		c0,9.5-7.7,17.2-17.2,17.2c-8.9,0-16.2-6.8-17.1-15.5l-12.3,1.8c-14.7,2.1-25.7,15.9-24.3,30.7l15.8,55.2
		c1.4,14.8-3.2,27.4-10.3,27.9C501.2,458.1,495.4,458,495.4,457.4z"/>
	<path class="st0" d="M430,658.8c0,0-8.4,7.7-18.5,16.9l-35,32c6.3,7,11.4,11.8,13.6,12.5c5.2,1.6,23.1,3,39.7,3
		c16.6,0,41-2.7,45.4-5.9c1.6-1.2,4.7-4.5,8.7-9.2l-35.3-32.3C438.4,666.5,430,658.8,430,658.8z"/>
	<path class="st0" d="M100.2,688.6c-5,4.5,1.3,11.4,6.6,7.8c60.8-40.5,118.4-77.2,182.7-105.5c-4.2-5.9-7.7-10.6-9.3-12.9
		C214.5,604.6,152.1,642.4,100.2,688.6z"/>
	<path class="st0" d="M300.2,605.7c-52.7,28.3-99,80.3-128.1,125.2c-2.6,4,2.7,9.4,6.4,5.9c42.7-40.5,79.5-90.2,129.8-119.8
		c-2.2-3.1-4.2-5.9-5.9-8.2C301.7,607.8,300.9,606.7,300.2,605.7z"/>
	<path class="st0" d="M206,795.2c-2,4.7,4.8,7.9,7.7,4c38.2-50.8,67.2-111.7,118.4-149.3c-2.5-3.5-5-7-7.5-10.4
		C270.8,675.3,228.4,741.4,206,795.2z"/>
	<path class="st0" d="M759.4,688.2c-51.7-46-114.1-83.9-179.8-110.3c-1.4,1.9-4.9,6.8-9.4,13.1c64.5,28.4,122.6,65.2,183.3,105.7
		C759.1,700.3,764.2,692.5,759.4,688.2z"/>
	<path class="st0" d="M551.4,616.8c50.2,29.4,87,79.2,129.6,119.5c4.1,3.9,9.8-0.9,6.7-5.7c-29-44.7-75.5-96.6-128.2-124.9
		c-0.9,1.3-1.9,2.5-2.8,3.8C555.2,611.6,553.4,614.1,551.4,616.8z"/>
	<path class="st0" d="M646.5,799.6c3.1,4.1,9.2-0.3,7.3-4.7c-22.4-53.7-64.9-120.1-118.6-155.6c-2.5,3.5-5,7-7.6,10.5
		C579.1,687.3,608.2,748.7,646.5,799.6z"/>
	<path class="st0" d="M488.8,712.6c10.3,9.3,21.4,10.3,24.9,2c3.2-7.8-2.5-20-12.9-27.9c-6.3,8.3-12.2,15.8-16.9,21.4L488.8,712.6z"
		/>
	<path class="st0" d="M346.3,714.5c3.5,8.2,14.6,7.3,24.9-2l5.3-4.8c-5.3-5.9-11.4-13.3-17.4-20.9
		C348.8,694.6,343.1,706.8,346.3,714.5z"/>
</g>
</svg>
