<?xml version="1.0" encoding="utf-8"?>
<!-- Generator: Adobe Illustrator 27.1.1, SVG Export Plug-In . SVG Version: 6.00 Build 0)  -->
<svg version="1.1"
	 id="svg2" xmlns:inkscape="http://www.inkscape.org/namespaces/inkscape" xmlns:rdf="http://www.w3.org/1999/02/22-rdf-syntax-ns#" xmlns:sodipodi="http://sodipodi.sourceforge.net/DTD/sodipodi-0.dtd" xmlns:svg="http://www.w3.org/2000/svg" xmlns:cc="http://creativecommons.org/ns#" xmlns:dc="http://purl.org/dc/elements/1.1/" inkscape:version="0.92.3 (2405546, 2018-03-11)" sodipodi:docname="qtio-ar21.svg"
	 xmlns="http://www.w3.org/2000/svg" xmlns:xlink="http://www.w3.org/1999/xlink" x="0px" y="0px" viewBox="0 0 80.5 59" width="80.5" height="59"
	 style="enable-background:new 0 0 80.5 59;" xml:space="preserve">
<style type="text/css">
	.st0{fill:#41CD52;}
</style>
<sodipodi:namedview  bordercolor="#666666" borderopacity="1" gridtolerance="10" guidetolerance="10" id="namedview16" inkscape:current-layer="svg2" inkscape:cx="46.921109" inkscape:cy="51.098855" inkscape:pageopacity="0" inkscape:pageshadow="2" inkscape:window-height="1001" inkscape:window-maximized="1" inkscape:window-width="1920" inkscape:window-x="-9" inkscape:window-y="-9" inkscape:zoom="3.150484" objecttolerance="10" pagecolor="#ffffff" showgrid="false" units="px">
	</sodipodi:namedview>
<g>
	<path class="st0" d="M36.5,18.7c-0.6-1.3-1.8-2.4-3.2-3c-1.7-0.7-3.6-0.7-5.4-0.5c-1.4,0.2-2.8,0.7-3.8,1.7
		c-1.2,1.2-1.7,2.8-2.1,4.4c-0.9,4.2-0.8,8.5-0.1,12.8c0.2,1.3,0.6,2.7,1.2,3.9c0.5,1,1.3,1.8,2.3,2.4c1.7,0.9,3.7,1,5.6,0.9
		c1.8-0.1,3.6-0.7,4.9-2.1c1.2-1.4,1.6-3.2,1.9-5c0.4-2.9,0.4-5.9,0.2-8.9C37.9,23,37.5,20.8,36.5,18.7z"/>
	<path class="st0" d="M11.1,0C7.4,3.7,3.7,7.4,0,11v48h69.3c3.8-3.7,7.5-7.4,11.2-11.2V0H11.1z M42.9,51c-1.8,0.8-3.5,1.6-5.3,2.4
		c-1.5-2.5-3-5-4.5-7.4c-2,0.3-4.1,0.3-6.2,0.1c-2.5-0.3-5-1-6.9-2.7c-1.5-1.3-2.4-3-3-4.8c-1-3-1.3-6.3-1.3-9.5
		c0-3.4,0.2-6.9,1.2-10.2c0.8-2.5,2.1-5,4.4-6.4c2.6-1.7,5.9-2.2,9-2.2c3,0,6.1,0.6,8.5,2.3c1.8,1.2,2.9,3.2,3.7,5.2
		c1.2,3.3,1.6,6.8,1.7,10.3c0,3.5-0.2,7.1-1.3,10.4c-0.8,2.3-2.3,4.3-4.2,5.7C40.1,46.4,41.5,48.7,42.9,51z M56.7,36.4
		c0,1.1,0,2.3,0.5,3.3c0.4,0.8,1.3,1,2.1,1c1.5,0,2.9-0.1,4.4-0.1c0.1,1.5,0.2,2.9,0.3,4.4c-2.9,0.5-5.9,1.1-8.8,0.2
		c-1.2-0.4-2.3-1.2-2.8-2.4c-0.9-2-1-4.3-1-6.5c0-4,0-7.9,0-11.9c-1.3,0-2.6,0-3.9,0c0-1.6,0-3.2,0-4.8c1.3,0,2.6,0,3.9,0
		c0-2.4,0-4.9,0-7.3c1.8,0,3.7,0,5.5,0c0,2.4,0,4.9,0,7.3c2.4,0,4.7,0,7.1,0c0,1.6-0.1,3.2-0.1,4.8c-2.4,0-4.7,0-7.1,0
		C56.7,28.4,56.7,32.4,56.7,36.4z"/>
</g>
</svg>
