<?xml version="1.0" encoding="utf-8"?>
<!-- Generator: Adobe Illustrator 27.1.1, SVG Export Plug-In . SVG Version: 6.00 Build 0)  -->
<svg version="1.1"
	 id="Layer_1" text-rendering="geometricPrecision" image-rendering="optimizeQuality" shape-rendering="geometricPrecision"
	 xmlns="http://www.w3.org/2000/svg" xmlns:xlink="http://www.w3.org/1999/xlink" x="0px" y="0px" viewBox="0 0 7938.4 8192" width="7938" height="8192"
	 style="enable-background:new 0 0 7938.4 8192;" xml:space="preserve">
<style type="text/css">
	.st0{fill:#DD4814;}
</style>
<g>
	<circle class="st0" cx="860.8" cy="4076.4" r="860.8"/>
	<circle class="st0" cx="6489.2" cy="860.8" r="860.8"/>
	<path class="st0" d="M4653.6,1999.3c1019.5,0,1859.2,769.2,1970.8,1759l1314.1-34.5c-55.5-713.9-338.6-1363.9-776.7-1877.7
		c-191.5,130.9-423,207.6-672.5,207.6c-658.8,0-1192.8-534-1192.8-1192.8c0-36.8,1.7-73.2,5-109.2c-209.5-41.8-426-63.8-647.8-63.8
		h0c-520,0-1011.7,120.6-1449,335.1l646.8,1145.4C4096.7,2059.7,4368,1999.3,4653.6,1999.3z"/>
	<path class="st0" d="M4653.6,5966.3c-278.5,0-543.4-57.5-783.9-161v0l-638.4,1150.5c430.5,206.4,912.9,322,1422.3,322
		c232,0,458.3-24.2,676.7-69.8c61.7-602.4,570.6-1072.3,1189.2-1072.3c186.5,0,363,42.7,520.3,118.9
		c503.9-529.2,833.7-1225.7,897.2-1997.7L6622.8,4221C6505.1,5204.1,5668.5,5966.3,4653.6,5966.3z"/>
	<circle class="st0" cx="6519.5" cy="7331.2" r="860.8"/>
	<path class="st0" d="M2670.1,3982.8c0-643.8,306.8-1215.9,782.2-1578.3l0,0l-706.6-1108.4C2155,1716.3,1708.9,2326.4,1496.4,3037.4
		c349.3,214.1,582.4,599.3,582.4,1039c0,418.2-210.8,787-531.8,1006.3c231.6,653.9,663.8,1213,1222.7,1603.2l698.1-1113.2
		C2983.5,5211.1,2670.1,4633.5,2670.1,3982.8z"/>
</g>
</svg>
