<svg viewBox="0 0 512 512" xmlns="http://www.w3.org/2000/svg" fill-rule="evenodd" clip-rule="evenodd" stroke-linejoin="round" stroke-miterlimit="2"><path d="M482.333 358.4V119.467L275.399 0v91.733l81.068 46.934c3.2 2.132 3.2 6.4 0 7.467l-96 55.467c-3.2 2.132-6.4 1.066-8.534 0l-96-55.467c-3.2-1.067-3.2-6.4 0-7.467L237 91.733V0L29 119.467V358.4v-1.067 1.067l78.933-45.867v-93.867c0-3.2 4.267-5.332 6.4-4.266l96 55.467c3.2 2.133 4.267 4.267 4.267 7.467v110.932c0 3.2-4.267 5.335-6.4 4.267L127.134 345.6 48.2 391.467 255.133 512l206.934-119.467-78.934-45.867-81.066 46.935c-3.2 2.132-6.4 0-6.4-4.268V278.4c0-3.2 2.132-6.4 4.266-7.467l96.001-55.467c3.199-2.132 6.399 0 6.399 4.267V313.6l80 44.8z" fill="#4c4c4c" fill-rule="nonzero"/><path d="M255.133 512l206.934-119.467-78.934-45.867-81.066 46.935c-3.2 2.132-6.4 0-6.4-4.268V278.4c0-3.2 2.132-6.4 4.266-7.467l96.001-55.467c3.199-2.132 6.399 0 6.399 4.267V313.6l78.933 45.867v-240l-226.133 131.2V512z" fill-rule="nonzero"/><path d="M275.4 0v91.733l81.067 46.934c3.2 2.132 3.2 6.4 0 7.467l-96 55.467c-3.2 2.132-6.4 1.066-8.534 0l-96-55.467c-3.2-1.067-3.2-6.4 0-7.467L237 91.733V0L29 119.467l226.133 131.2 226.133-131.2L275.4 0z" fill="gray" fill-rule="nonzero"/><path d="M209.267 393.6l-81.068-46.934-78.933 45.867L256.2 512V250.667L29 119.467V358.4v-1.067 1.067l78.933-45.867v-93.867c0-3.2 4.267-5.332 6.4-4.266l96 55.467c3.2 2.133 4.267 4.267 4.267 7.467v110.932c1.067 4.267-2.133 7.467-5.333 5.335z" fill="#4c4c4c" fill-rule="nonzero"/></svg>