<?xml version="1.0" encoding="utf-8"?>
<!-- Generator: Adobe Illustrator 27.1.1, SVG Export Plug-In . SVG Version: 6.00 Build 0)  -->
<svg version="1.1" id="Layer_1" xmlns="http://www.w3.org/2000/svg" xmlns:xlink="http://www.w3.org/1999/xlink" x="0px" y="0px"
	 viewBox="0 0 2500 2500" style="enable-background:new 0 0 2500 2500;" xml:space="preserve" width="2500" height="2500">
<path d="M1250,139.3c613,0,1110.7,498.8,1110.7,1110.7S1861.9,2360.7,1250,2360.7S139.3,1863,139.3,1250S638.1,139.3,1250,139.3
	 M1250,0C559.6,0,0,559.6,0,1250s559.6,1250,1250,1250s1250-559.6,1250-1250S1941.5,0,1250,0z"/>
<path d="M1163.3,501.4c0,0-281.6,79.6-534.7,348.1S343.4,1309.4,343.4,1452c55.8-95.1,400.4-619.1,481.2-369.5v596.5
	c0,0-4.8,80.8-128.3,48.7c36.8,68.9,226.9,238.8,570.3,273.3c78.4-78.4,180.6-191.3,180.6-191.3l171.1,145
	c0,0,307.7-199.6,428.9-489.5c-112.9,73.7-249.5,244.8-320.8,124.8v-726c0,0,183-274.5,211.5-287.5
	c-72.5,13.1-327.9,97.4-462.2,270.9c-38-41.6-143.8-42.8-143.8-42.8s83.2,68.9,84.4,131.9s0,588.2,0,648.8
	c-57,58.2-117.6,89.1-156.8,89.1c-91.5,0-117.6-32.1-142.6-64.2V847.2c0,0-45.2,38-80.8-23.8S999.3,641.6,1163.3,501.4z"/>
</svg>
