<?xml version="1.0" encoding="utf-8"?>
<!-- Generator: Adobe Illustrator 27.1.1, SVG Export Plug-In . SVG Version: 6.00 Build 0)  -->
<svg version="1.1" id="Layer_1" xmlns="http://www.w3.org/2000/svg" xmlns:xlink="http://www.w3.org/1999/xlink" x="0px" y="0px"
	 viewBox="0 0 2000 2000" style="enable-background:new 0 0 2000 2000;" xml:space="preserve">
<style type="text/css">
	.st0{fill:#702AF7;}
</style>
<path class="st0" d="M1986.1,675.1c-43.2,271.1-181.2,518-389.4,696.8s-473.1,278.1-747.5,280c-55.6,2.1-111.3-1.2-166.2-10.1
	c-236.7-40.2-413.2-240.3-423.5-480.1c1.1-129.8,53.2-254,145.1-345.8C595.8,625,904.7,622.8,1098.5,811
	c93.2,90.4,147,213.9,150,343.7c2.1,82-33.4,153.9-106.4,156c-78,0-114.5-55.6-114.5-130.6V971.6c0.1-70.1-56.5-127.2-126.6-127.8
	H726.2c-103.2-0.7-199.8,51-256.4,137.4c-92.1,140.5-52.8,328.9,87.6,421c36.1,23.6,76.8,39.3,119.4,46.1
	c102,16,205.1-20.7,273.9-97.7l6.1-9.1l6.1,10.1c42.7,58,111.5,90.8,183.4,87.3c131.2-9.5,230.9-122,224.6-253.4
	c0.6-54.2-5.5-108.3-18.1-161.1c-32.4-149-118.8-280.7-242.5-369.8C854.1,470.2,499.9,509,289.7,744.6
	c-101.5,113.7-157.4,261-156.8,413.5c1.9,161.7,66.5,316.3,180,431.4c113.5,115.1,267.3,181.7,428.9,185.7c0,0,45.7,4.2,97.3,3
	c250.7-1.6,495.7-74.7,706.2-210.7c3-2.1,6,2.1,4,5.1c-207.5,223.5-502.9,344.3-807.5,330.3c-198.8,3.6-390.5-74.2-530.6-215.4
	C71.2,1546.2-5,1353.9,0.2,1155.1c0.1-237.8,112.4-461.7,302.9-604C429.4,458,582,407.6,738.9,407.2h234.4
	c185.2-0.1,361.7-78.1,486.6-214.8c1.3-1.4,3-2.4,4.9-2.8c3.9-0.8,7.9,0.9,10,4.3c1,1.7,1.5,3.6,1.3,5.6
	c-9.9,105.4-45,206.8-102.3,295.8c-1.7,3.2-1.4,7,0.8,9.9c2.2,2.9,5.8,4.2,9.3,3.3c219.5-49.6,402.3-200.4,492.8-406.4
	c1.1-1.8,2.7-3.3,4.6-4.4c3.8-2.1,8.4-2.1,12.2,0c1.9,1.1,3.4,2.6,4.5,4.4C1989.9,278.1,2020.9,479.6,1986.1,675.1L1986.1,675.1z
	 M741.2,969c-100.7,0-182.3,81.6-182.4,182.3c0,12,1.2,23.9,3.5,35.6c14.4,72.3,70.9,128.9,143.3,143.3
	c98.8,19.6,194.8-44.5,214.4-143.3c2.3-11.7,3.5-23.7,3.5-35.6V981.1c-0.3-6.7-5.7-12.1-12.5-12.5L741.2,969z"/>
</svg>
