<?xml version="1.0" encoding="utf-8"?>
<!-- Generator: Adobe Illustrator 27.1.1, SVG Export Plug-In . SVG Version: 6.00 Build 0)  -->
<svg version="1.1" id="Layer_1" xmlns="http://www.w3.org/2000/svg" xmlns:xlink="http://www.w3.org/1999/xlink" x="0px" y="0px"
	 viewBox="0 0 306 344.4" style="enable-background:new 0 0 306 344.4;" xml:space="preserve">
<style type="text/css">
	.st0{fill:#00599C;}
	.st1{fill:#659AD2;}
	.st2{fill:#004482;}
</style>
<path class="st0" d="M302.1,86.1L153,172.2l149.1,86.1c2.4-4.2,3.9-8.8,3.9-13.1V99.1C306,94.9,304.5,90.2,302.1,86.1z M255,177.8
	h-11.3v11.3h-11.3v-11.3H221v-11.3h11.3v-11.3h11.3v11.3H255V177.8z M297.5,177.8h-11.3v11.3h-11.3v-11.3h-11.3v-11.3h11.3v-11.3
	h11.3v11.3h11.3V177.8z"/>
<g>
	<path class="st1" d="M51,172.2c0-56.2,45.8-102,102-102c36.3,0,70.1,19.5,88.3,51l-25.8,14.9l86.6-50c-2.4-4.2-5.7-7.8-9.4-9.9
		l-126.5-73c-7.3-4.2-19.2-4.2-26.5,0l-126.5,73C6,80.4,0,90.7,0,99.1v146.1c0,4.2,1.5,8.9,3.9,13.1l60.8-35.1
		C56,208.2,51,190.7,51,172.2z"/>
	<path class="st1" d="M197.2,146.7c-9.1-15.7-26-25.5-44.2-25.5c-28.1,0-51,22.9-51,51c0,9.3,2.5,18,6.9,25.5l44.1-25.5L197.2,146.7
		z"/>
</g>
<g>
	<path class="st2" d="M153,223.2c18.1,0,35.1-9.8,44.2-25.5L153,172.2l-44.1,25.5C117.7,212.9,134.2,223.2,153,223.2z"/>
	<path class="st2" d="M219.4,210.5l21.9,12.7c-18.2,31.4-52,51-88.3,51c-37.7,0-70.7-20.5-88.3-51L3.9,258.3
		c2.4,4.2,5.7,7.8,9.4,9.9l126.5,73c7.3,4.2,19.2,4.2,26.5,0l126.5-73c3.6-2.1,7-5.7,9.4-9.9L219.4,210.5z"/>
</g>
</svg>
