<?xml version="1.0" encoding="utf-8"?>
<!-- Generator: Adobe Illustrator 27.1.1, SVG Export Plug-In . SVG Version: 6.00 Build 0)  -->
<svg version="1.1" xmlns="http://www.w3.org/2000/svg" xmlns:xlink="http://www.w3.org/1999/xlink" x="0px" y="0px"
	 viewBox="0 0 64 64" style="enable-background:new 0 0 64 64;" xml:space="preserve">
<style type="text/css">
	.st0{display:none;}
	.st1{display:inline;}
	.st2{fill:#DD4814;}
</style>
<g id="bg" class="st0">
	<rect class="st1" width="64" height="64"/>
</g>
<g id="Layer_1">
	<path class="st2" d="M32,0C14.3,0,0,14.3,0,32s14.3,32,32,32s32-14.3,32-32S49.7,0,32,0z M39.2,11C40.4,9,43,8.3,45,9.5
		s2.7,3.8,1.6,5.8s-3.8,2.8-5.8,1.6l0,0C38.7,15.7,38,13.1,39.2,11z M10.2,36.3C7.9,36.3,6,34.4,6,32s1.9-4.3,4.3-4.3
		s4.3,1.9,4.3,4.3S12.6,36.3,10.2,36.3z M14,36.7c1.3-1.1,2.2-2.8,2.2-4.7s-0.9-3.6-2.2-4.7c1.1-4.4,3.9-8.3,7.7-10.8l3.1,5.2
		c-3.3,2.3-5.3,6.1-5.3,10.2h0c0,4.1,2,7.9,5.3,10.2l-3.1,5.2C18,44.9,15.2,41.1,14,36.7z M45,54.5c-2,1.2-4.7,0.5-5.8-1.6
		s-0.5-4.6,1.6-5.8c2-1.2,4.7-0.5,5.8,1.6C47.8,50.8,47.1,53.4,45,54.5z M45,45.2c-1.6-0.6-3.5-0.5-5.1,0.4s-2.6,2.5-2.9,4.2
		c-1.6,0.4-3.3,0.7-5,0.7c-3,0-5.7-0.7-8.2-1.9l3-5.3c1.6,0.7,3.4,1.2,5.3,1.2c6.5,0,11.9-4.9,12.4-11.4l6.1,0.1
		C50.2,37.8,48.3,42,45,45.2z M44.4,30.9c-0.6-6.4-6-11.4-12.4-11.4h0c-1.9,0-3.7,0.4-5.3,1.2l-3-5.3c2.5-1.2,5.3-1.9,8.2-1.9
		c1.7,0,3.4,0.2,5,0.7c0.3,1.8,1.4,3.3,2.9,4.2c1.6,0.9,3.5,1,5.1,0.4c3.3,3.2,5.2,7.5,5.5,12L44.4,30.9z"/>
</g>
</svg>
